<?xml version="1.0" encoding="UTF-8"?>
<svg id="Capa_1" xmlns="http://www.w3.org/2000/svg" version="1.1" viewBox="0 0 378.09 40.6">
  <!-- Generator: Adobe Illustrator 30.6.0, SVG Export Plug-In . SVG Version: 2.1.4 Build 109)  -->
  <defs>
    <style>
      .st0 {
        fill: #fff;
      }

      .st1 {
        fill: none;
        stroke: #d5d6db;
        stroke-miterlimit: 10;
      }
    </style>
  </defs>
  <path class="st0" d="M.17,34.33l6.51-5.17c.29-.24.58-.17.82.12,1.06,1.18,2.47,2.11,4.4,2.11,3.29,0,5.04-1.99,5.04-5.87V.58c0-.35.24-.58.58-.58h9.15c.35,0,.58.24.58.58v24.12c0,10.56-5.51,15.9-15.25,15.9-5.17,0-9.86-2.29-11.9-5.46-.17-.29-.17-.58.05-.82h0Z"/>
  <path class="st0" d="M34.2,39.9c-.35,0-.58-.24-.58-.58V.58c0-.35.24-.58.58-.58h15.96c9.74,0,14.78,5.51,14.78,13.26s-5.11,13.32-14.78,13.32h-5.87c-.24,0-.35.12-.35.35v12.38c0,.35-.24.58-.58.58h-9.15ZM54.61,13.26c0-2.76-1.82-4.52-5.04-4.52h-5.29c-.24,0-.35.12-.35.35v8.39c0,.24.12.35.35.35h5.29c3.22,0,5.04-1.82,5.04-4.57h0Z"/>
  <path class="st0" d="M85.57,0c.41,0,.64.17.76.58l12.74,38.67c.12.35-.12.64-.52.64h-9.62c-.41,0-.64-.17-.76-.58l-7.1-24.06h-.17l-6.87,24.06c-.12.41-.35.58-.76.58h-9.57c-.41,0-.58-.29-.47-.64L75.95.58c.12-.41.35-.58.76-.58h8.86,0Z"/>
  <g>
    <path class="st0" d="M136.32,27.46c-1.07,0-2.06-.21-2.96-.62-.9-.42-1.64-1.02-2.22-1.8l1.78-2.14c.46.64.97,1.12,1.52,1.44s1.16.48,1.81.48c1.74,0,2.62-1.03,2.62-3.1v-8.69h-5.98v-2.62h9.1v11.14c0,1.98-.48,3.46-1.45,4.44s-2.37,1.46-4.21,1.46h0Z"/>
    <path class="st0" d="M151.82,27.38c-1.31,0-2.48-.28-3.5-.85s-1.83-1.35-2.42-2.34-.89-2.12-.89-3.38.3-2.41.89-3.4c.59-.98,1.4-1.76,2.42-2.32s2.19-.84,3.5-.84,2.51.28,3.54.84,1.84,1.33,2.42,2.3c.58.98.88,2.11.88,3.41s-.29,2.39-.88,3.38c-.58.99-1.39,1.77-2.42,2.34s-2.21.85-3.54.85h0ZM151.82,24.82c.74,0,1.39-.16,1.97-.48s1.03-.78,1.36-1.39.49-1.32.49-2.14-.16-1.55-.49-2.15-.78-1.06-1.36-1.38-1.22-.48-1.94-.48-1.39.16-1.96.48-1.02.78-1.36,1.38c-.34.6-.5,1.32-.5,2.15s.17,1.53.5,2.14c.34.61.79,1.07,1.36,1.39s1.21.48,1.93.48h0Z"/>
    <path class="st0" d="M161.54,27.22v-12.82h2.86v3.53l-.34-1.03c.38-.86.99-1.52,1.81-1.97.82-.45,1.85-.67,3.08-.67v2.86c-.13-.03-.25-.05-.36-.06-.11,0-.22-.01-.34-.01-1.14,0-2.04.33-2.71,1-.67.66-1.01,1.65-1.01,2.96v6.22h-3,0Z"/>
    <path class="st0" d="M176.81,26.64c-1.22,0-2.32-.26-3.3-.78s-1.76-1.24-2.33-2.17-.85-2.02-.85-3.26.28-2.31.85-3.24,1.34-1.65,2.33-2.16c.98-.51,2.08-.77,3.3-.77,1.09,0,2.06.22,2.93.65.86.43,1.56,1.1,2.08,2.02.52.91.78,2.08.78,3.5s-.26,2.6-.78,3.52-1.21,1.6-2.08,2.04c-.86.44-1.84.66-2.93.66h0ZM177.19,32.04c-1.18,0-2.34-.16-3.47-.47s-2.05-.76-2.77-1.36l1.34-2.26c.56.46,1.27.84,2.12,1.12.86.28,1.72.42,2.6.42,1.41,0,2.44-.32,3.1-.97s.98-1.62.98-2.92v-2.28l.24-2.9-.1-2.9v-3.12h2.86v10.87c0,2.32-.59,4.03-1.78,5.12-1.18,1.1-2.9,1.64-5.14,1.64h.02ZM177.26,24.1c.75,0,1.42-.16,2.02-.47.59-.31,1.05-.74,1.38-1.3.33-.55.49-1.19.49-1.91s-.17-1.36-.49-1.91c-.33-.55-.79-.98-1.38-1.27-.59-.3-1.26-.44-2.02-.44s-1.43.15-2.03.44c-.6.3-1.06.72-1.39,1.27-.33.55-.49,1.19-.49,1.91s.16,1.36.49,1.91.79.98,1.39,1.3c.6.31,1.28.47,2.03.47Z"/>
    <path class="st0" d="M194.06,27.38c-1.42,0-2.67-.28-3.73-.85s-1.89-1.35-2.47-2.34-.88-2.12-.88-3.38.28-2.41.85-3.4c.57-.98,1.35-1.76,2.35-2.32s2.14-.84,3.42-.84,2.36.27,3.34.82c.98.54,1.74,1.31,2.3,2.3s.84,2.16.84,3.5v.43c0,.16-.02.31-.04.46h-10.68v-1.99h9.1l-1.18.62c.02-.74-.14-1.38-.46-1.94s-.76-1-1.31-1.32-1.19-.48-1.91-.48-1.38.16-1.93.48c-.55.32-.98.76-1.3,1.33-.31.57-.47,1.24-.47,2v.48c0,.77.18,1.45.53,2.04.35.59.85,1.05,1.49,1.37.64.32,1.38.48,2.21.48.72,0,1.37-.11,1.94-.34.58-.22,1.09-.58,1.54-1.06l1.61,1.85c-.58.67-1.3,1.19-2.17,1.55-.87.36-1.87.54-2.99.54h0Z"/>
    <path class="st0" d="M209.88,27.22V10.42h6.91c1.49,0,2.76.24,3.83.72,1.06.48,1.88,1.17,2.46,2.06.58.9.86,1.96.86,3.19s-.29,2.3-.86,3.19-1.4,1.58-2.46,2.06c-1.06.48-2.34.72-3.83.72h-5.18l1.39-1.46v6.31h-3.12ZM213,21.24l-1.39-1.51h5.04c1.38,0,2.41-.29,3.11-.88s1.04-1.4,1.04-2.46-.35-1.9-1.04-2.47c-.7-.58-1.73-.86-3.11-.86h-5.04l1.39-1.54s0,9.72,0,9.72Z"/>
    <path class="st0" d="M230.52,27.38c-.96,0-1.8-.16-2.52-.49s-1.28-.78-1.67-1.37c-.39-.58-.59-1.24-.59-1.98s.17-1.37.52-1.94c.34-.58.91-1.03,1.69-1.37s1.82-.5,3.12-.5h3.72v1.99h-3.5c-1.02,0-1.71.17-2.06.49-.35.33-.53.73-.53,1.21,0,.54.22.98.65,1.3s1.03.48,1.8.48,1.4-.17,1.98-.5,1-.83,1.26-1.49l.5,1.8c-.29.75-.8,1.34-1.55,1.75-.74.42-1.68.62-2.82.62h0ZM234.55,27.22v-2.59l-.17-.55v-4.54c0-.88-.26-1.56-.79-2.05s-1.33-.73-2.4-.73c-.72,0-1.43.11-2.12.34s-1.28.54-1.76.94l-1.18-2.18c.69-.53,1.51-.92,2.46-1.19.95-.26,1.94-.4,2.96-.4,1.86,0,3.29.44,4.31,1.33s1.52,2.26,1.52,4.12v7.51h-2.83ZM229.8,12.65l3.24-3.29h3.53l-4.18,3.29h-2.59Z"/>
    <path class="st0" d="M241.22,27.22v-12.82h2.86v3.53l-.34-1.03c.38-.86.99-1.52,1.81-1.97.82-.45,1.85-.67,3.08-.67v2.86c-.13-.03-.25-.05-.36-.06-.11,0-.22-.01-.34-.01-1.14,0-2.04.33-2.71,1-.67.66-1.01,1.65-1.01,2.96v6.22h-3,0Z"/>
    <path class="st0" d="M251.18,27.22v-12.82h2.86v3.53l-.34-1.03c.38-.86.99-1.52,1.81-1.97.82-.45,1.85-.67,3.08-.67v2.86c-.13-.03-.25-.05-.36-.06-.11,0-.22-.01-.34-.01-1.14,0-2.04.33-2.71,1-.67.66-1.01,1.65-1.01,2.96v6.22h-3,.01Z"/>
    <path class="st0" d="M264.1,27.38c-.96,0-1.8-.16-2.52-.49s-1.28-.78-1.67-1.37c-.39-.58-.59-1.24-.59-1.98s.17-1.37.52-1.94c.34-.58.91-1.03,1.69-1.37s1.82-.5,3.12-.5h3.72v1.99h-3.5c-1.02,0-1.71.17-2.06.49-.35.33-.53.73-.53,1.21,0,.54.22.98.65,1.3s1.03.48,1.8.48,1.4-.17,1.98-.5,1-.83,1.26-1.49l.5,1.8c-.29.75-.8,1.34-1.55,1.75-.74.42-1.68.62-2.82.62ZM268.13,27.22v-2.59l-.17-.55v-4.54c0-.88-.26-1.56-.79-2.05s-1.33-.73-2.4-.73c-.72,0-1.43.11-2.12.34s-1.28.54-1.76.94l-1.18-2.18c.69-.53,1.51-.92,2.46-1.19.95-.26,1.94-.4,2.96-.4,1.86,0,3.29.44,4.31,1.33s1.52,2.26,1.52,4.12v7.51h-2.83,0Z"/>
    <path class="st0" d="M280.25,26.64c-1.22,0-2.32-.26-3.3-.78-.98-.52-1.76-1.24-2.33-2.17-.57-.93-.85-2.02-.85-3.26s.28-2.31.85-3.24,1.34-1.65,2.33-2.16c.98-.51,2.08-.77,3.3-.77,1.09,0,2.06.22,2.93.65.86.43,1.56,1.1,2.08,2.02.52.91.78,2.08.78,3.5s-.26,2.6-.78,3.52-1.21,1.6-2.08,2.04c-.86.44-1.84.66-2.93.66h0ZM280.63,32.04c-1.18,0-2.34-.16-3.47-.47s-2.05-.76-2.77-1.36l1.34-2.26c.56.46,1.27.84,2.12,1.12.86.28,1.72.42,2.6.42,1.41,0,2.44-.32,3.1-.97s.98-1.62.98-2.92v-2.28l.24-2.9-.1-2.9v-3.12h2.86v10.87c0,2.32-.59,4.03-1.78,5.12-1.18,1.1-2.9,1.64-5.14,1.64h.02ZM280.7,24.1c.75,0,1.42-.16,2.02-.47.59-.31,1.05-.74,1.38-1.3.33-.55.49-1.19.49-1.91s-.17-1.36-.49-1.91c-.33-.55-.79-.98-1.38-1.27-.59-.3-1.26-.44-2.02-.44s-1.43.15-2.03.44c-.6.3-1.06.72-1.39,1.27-.33.55-.49,1.19-.49,1.91s.16,1.36.49,1.91.79.98,1.39,1.3c.6.31,1.28.47,2.03.47Z"/>
    <path class="st0" d="M295.34,27.38c-.96,0-1.8-.16-2.52-.49s-1.28-.78-1.67-1.37c-.39-.58-.59-1.24-.59-1.98s.17-1.37.52-1.94c.34-.58.91-1.03,1.69-1.37s1.82-.5,3.12-.5h3.72v1.99h-3.5c-1.02,0-1.71.17-2.06.49-.35.33-.53.73-.53,1.21,0,.54.22.98.65,1.3s1.03.48,1.8.48,1.4-.17,1.98-.5,1-.83,1.26-1.49l.5,1.8c-.29.75-.8,1.34-1.55,1.75-.74.42-1.68.62-2.82.62ZM299.38,27.22v-2.59l-.17-.55v-4.54c0-.88-.26-1.56-.79-2.05s-1.33-.73-2.4-.73c-.72,0-1.43.11-2.12.34s-1.28.54-1.76.94l-1.18-2.18c.69-.53,1.51-.92,2.46-1.19.95-.26,1.94-.4,2.96-.4,1.86,0,3.29.44,4.31,1.33s1.52,2.26,1.52,4.12v7.51h-2.83,0Z"/>
    <path class="st0" d="M305.4,21.79v-2.5h6.6v2.5h-6.6Z"/>
    <path class="st0" d="M312.72,27.22l7.56-16.8h3.07l7.58,16.8h-3.26l-6.5-15.14h1.25l-6.48,15.14h-3.22,0ZM316.2,23.33l.84-2.45h9.07l.84,2.45h-10.75ZM319.8,9.05l3.24-3.29h3.53l-4.18,3.29h-2.59Z"/>
    <path class="st0" d="M332.78,27.22V9.41h3v17.81h-3Z"/>
    <path class="st0" d="M343.58,27.38c-.96,0-1.8-.16-2.52-.49s-1.28-.78-1.67-1.37c-.39-.58-.59-1.24-.59-1.98s.17-1.37.52-1.94c.34-.58.91-1.03,1.69-1.37s1.82-.5,3.12-.5h3.72v1.99h-3.5c-1.02,0-1.71.17-2.06.49-.35.33-.53.73-.53,1.21,0,.54.22.98.65,1.3s1.03.48,1.8.48,1.4-.17,1.98-.5,1-.83,1.26-1.49l.5,1.8c-.29.75-.8,1.34-1.55,1.75-.74.42-1.68.62-2.82.62ZM347.61,27.22v-2.59l-.17-.55v-4.54c0-.88-.26-1.56-.79-2.05s-1.33-.73-2.4-.73c-.72,0-1.43.11-2.12.34s-1.28.54-1.76.94l-1.18-2.18c.69-.53,1.51-.92,2.46-1.19.95-.26,1.94-.4,2.96-.4,1.86,0,3.29.44,4.31,1.33s1.52,2.26,1.52,4.12v7.51h-2.83,0Z"/>
    <path class="st0" d="M357.45,27.22l-5.5-12.82h3.12l4.73,11.3h-1.54l4.9-11.3h2.88l-5.5,12.82h-3.1.01Z"/>
    <path class="st0" d="M371.23,27.38c-.96,0-1.8-.16-2.52-.49s-1.28-.78-1.67-1.37c-.39-.58-.59-1.24-.59-1.98s.17-1.37.52-1.94c.34-.58.91-1.03,1.69-1.37s1.82-.5,3.12-.5h3.72v1.99h-3.5c-1.02,0-1.71.17-2.06.49-.35.33-.53.73-.53,1.21,0,.54.22.98.65,1.3s1.03.48,1.8.48,1.4-.17,1.98-.5,1-.83,1.26-1.49l.5,1.8c-.29.75-.8,1.34-1.55,1.75-.74.42-1.68.62-2.82.62ZM375.26,27.22v-2.59l-.17-.55v-4.54c0-.88-.26-1.56-.79-2.05s-1.33-.73-2.4-.73c-.72,0-1.43.11-2.12.34s-1.28.54-1.76.94l-1.18-2.18c.69-.53,1.51-.92,2.46-1.19.95-.26,1.94-.4,2.96-.4,1.86,0,3.29.44,4.31,1.33s1.52,2.26,1.52,4.12v7.51h-2.83,0Z"/>
  </g>
  <line class="st1" x1="117.31" y1="4" x2="117.31" y2="36.78"/>
</svg>