<?xml version="1.0" encoding="UTF-8"?>
<svg id="Capa_1" xmlns="http://www.w3.org/2000/svg" version="1.1" viewBox="0 0 394.18 47.23">
  <!-- Generator: Adobe Illustrator 30.6.0, SVG Export Plug-In . SVG Version: 2.1.4 Build 109)  -->
  <defs>
    <style>
      .st0, .st1 {
        fill: #fff;
      }

      .st1 {
        font-family: Montserrat-SemiBold, Montserrat;
        font-size: 24px;
        font-weight: 600;
      }
    </style>
  </defs>
  <path class="st0" d="M.21,39.94l7.58-6.01c.34-.28.68-.2.95.14,1.23,1.37,2.87,2.46,5.12,2.46,3.83,0,5.87-2.32,5.87-6.83V.68c0-.41.28-.68.68-.68h10.65c.41,0,.68.28.68.68v28.06c0,12.29-6.41,18.5-17.74,18.5-6.01,0-11.47-2.66-13.85-6.35-.2-.34-.2-.68.06-.95h0Z"/>
  <path class="st0" d="M39.8,46.42c-.41,0-.68-.28-.68-.68V.68c0-.41.28-.68.68-.68h18.57c11.33,0,17.2,6.41,17.2,15.43s-5.94,15.5-17.2,15.5h-6.83c-.28,0-.41.14-.41.41v14.4c0,.41-.28.68-.68.68h-10.65,0ZM63.55,15.43c0-3.21-2.12-5.26-5.87-5.26h-6.15c-.28,0-.41.14-.41.41v9.76c0,.28.14.41.41.41h6.15c3.75,0,5.87-2.12,5.87-5.32h0Z"/>
  <path class="st0" d="M99.57,0c.48,0,.75.2.89.68l14.82,44.99c.14.41-.14.75-.61.75h-11.19c-.48,0-.75-.2-.89-.68l-8.26-27.99h-.2l-7.99,27.99c-.14.48-.41.68-.89.68h-11.13c-.48,0-.68-.34-.55-.75L88.38.68c.14-.48.41-.68.89-.68h10.31,0Z"/>
  <text class="st1" transform="translate(145.66 29.86)"><tspan x="0" y="0">Jorge Párraga-Álava</tspan></text>
</svg>