<?xml version="1.0" encoding="UTF-8"?>
<svg id="Capa_1" xmlns="http://www.w3.org/2000/svg" version="1.1" viewBox="0 0 99.12 57.12">
  <!-- Generator: Adobe Illustrator 30.6.0, SVG Export Plug-In . SVG Version: 2.1.4 Build 109)  -->
  <defs>
    <style>
      .st0 {
        font-family: Poppins-Regular, Poppins;
        font-size: 9.63px;
      }

      .st1 {
        fill: #0e2242;
      }
    </style>
  </defs>
  <path class="st1" d="M.19,34.33l6.51-5.17c.29-.24.58-.17.82.12,1.06,1.18,2.47,2.11,4.4,2.11,3.29,0,5.04-1.99,5.04-5.87V.58c0-.35.24-.58.58-.58h9.15c.35,0,.58.24.58.58v24.12c0,10.56-5.51,15.9-15.25,15.9-5.17,0-9.86-2.29-11.9-5.46-.17-.29-.17-.58.05-.82h.02Z"/>
  <path class="st1" d="M34.22,39.9c-.35,0-.58-.24-.58-.58V.58c0-.35.24-.58.58-.58h15.96c9.74,0,14.78,5.51,14.78,13.26s-5.11,13.32-14.78,13.32h-5.87c-.24,0-.35.12-.35.35v12.38c0,.35-.24.58-.58.58h-9.16ZM54.63,13.26c0-2.76-1.82-4.52-5.04-4.52h-5.29c-.24,0-.35.12-.35.35v8.39c0,.24.12.35.35.35h5.29c3.22,0,5.04-1.82,5.04-4.57h0Z"/>
  <path class="st1" d="M85.59,0c.41,0,.64.17.76.58l12.74,38.67c.12.35-.12.64-.52.64h-9.62c-.41,0-.64-.17-.76-.58l-7.1-24.06h-.17l-6.87,24.06c-.12.41-.35.58-.76.58h-9.57c-.41,0-.58-.29-.47-.64L75.97.58c.12-.41.35-.58.76-.58,0,0,8.86,0,8.86,0Z"/>
  <text class="st0" transform="translate(1.28 51.61) scale(.98 1)"><tspan x="0" y="0">Jorge Párraga Álava</tspan></text>
</svg>