<?xml version="1.0" encoding="UTF-8"?>
<svg id="Capa_1" xmlns="http://www.w3.org/2000/svg" version="1.1" viewBox="0 0 328.89 40.6">
  <!-- Generator: Adobe Illustrator 30.6.0, SVG Export Plug-In . SVG Version: 2.1.4 Build 109)  -->
  <defs>
    <style>
      .st0 {
        fill: #fff;
      }

      .st1 {
        fill: none;
        stroke: #d5d6db;
        stroke-miterlimit: 10;
      }
    </style>
  </defs>
  <path class="st0" d="M.19,34.33l6.51-5.17c.29-.24.58-.17.82.12,1.06,1.18,2.47,2.11,4.4,2.11,3.29,0,5.04-1.99,5.04-5.87V.58c0-.35.24-.58.58-.58h9.15c.35,0,.58.24.58.58v24.12c0,10.56-5.51,15.9-15.25,15.9-5.17,0-9.86-2.29-11.9-5.46-.17-.29-.17-.58.05-.82h.02Z"/>
  <path class="st0" d="M34.22,39.9c-.35,0-.58-.24-.58-.58V.58c0-.35.24-.58.58-.58h15.96c9.74,0,14.78,5.51,14.78,13.26s-5.11,13.32-14.78,13.32h-5.87c-.24,0-.35.12-.35.35v12.38c0,.35-.24.58-.58.58h-9.16ZM54.63,13.26c0-2.76-1.82-4.52-5.04-4.52h-5.29c-.24,0-.35.12-.35.35v8.39c0,.24.12.35.35.35h5.29c3.22,0,5.04-1.82,5.04-4.57h0Z"/>
  <path class="st0" d="M85.59,0c.41,0,.64.17.76.58l12.74,38.67c.12.35-.12.64-.52.64h-9.62c-.41,0-.64-.17-.76-.58l-7.1-24.06h-.17l-6.87,24.06c-.12.41-.35.58-.76.58h-9.57c-.41,0-.58-.29-.47-.64L75.97.58c.12-.41.35-.58.76-.58h8.86Z"/>
  <g>
    <path class="st0" d="M147.06,26.6c-.8,0-1.55-.16-2.23-.47-.68-.32-1.23-.77-1.67-1.35l1.34-1.61c.35.48.73.84,1.14,1.08s.87.36,1.36.36c1.31,0,1.97-.77,1.97-2.33v-6.54h-4.5v-1.97h6.84v8.38c0,1.49-.36,2.6-1.09,3.34s-1.78,1.1-3.17,1.1h0Z"/>
    <path class="st0" d="M158.71,26.54c-.99,0-1.87-.21-2.63-.64s-1.38-1.02-1.82-1.76-.67-1.59-.67-2.54.23-1.81.67-2.56c.44-.74,1.05-1.32,1.82-1.74s1.65-.63,2.63-.63,1.89.21,2.66.63,1.38,1,1.82,1.73c.44.74.66,1.59.66,2.56s-.22,1.8-.66,2.54c-.44.74-1.05,1.33-1.82,1.76s-1.66.64-2.66.64h0ZM158.71,24.61c.56,0,1.05-.12,1.48-.36s.77-.59,1.02-1.05.37-.99.37-1.61-.12-1.17-.37-1.62-.59-.8-1.02-1.04-.92-.36-1.46-.36-1.05.12-1.47.36-.77.59-1.02,1.04c-.26.45-.38.99-.38,1.62s.13,1.15.38,1.61c.26.46.59.8,1.02,1.05s.91.36,1.45.36h0Z"/>
    <path class="st0" d="M166.02,26.42v-9.64h2.15v2.65l-.26-.77c.29-.65.74-1.14,1.36-1.48.62-.34,1.39-.5,2.32-.5v2.15c-.1-.02-.19-.04-.27-.05-.08,0-.17,0-.26,0-.86,0-1.53.25-2.04.75-.5.5-.76,1.24-.76,2.23v4.68h-2.26,0Z"/>
    <path class="st0" d="M177.51,25.98c-.92,0-1.74-.2-2.48-.59s-1.32-.93-1.75-1.63-.64-1.52-.64-2.45.21-1.74.64-2.44,1.01-1.24,1.75-1.62c.74-.38,1.56-.58,2.48-.58.82,0,1.55.17,2.2.49.65.32,1.17.83,1.56,1.52.39.68.59,1.56.59,2.63s-.2,1.96-.59,2.65-.91,1.2-1.56,1.53c-.65.33-1.38.5-2.2.5h0ZM177.79,30.04c-.89,0-1.76-.12-2.61-.35s-1.54-.57-2.08-1.02l1.01-1.7c.42.35.96.63,1.59.84.65.21,1.29.32,1.96.32,1.06,0,1.84-.24,2.33-.73s.74-1.22.74-2.2v-1.71l.18-2.18-.08-2.18v-2.35h2.15v8.18c0,1.74-.44,3.03-1.34,3.85-.89.83-2.18,1.23-3.87,1.23h.02ZM177.85,24.07c.56,0,1.07-.12,1.52-.35.44-.23.79-.56,1.04-.98.25-.41.37-.89.37-1.44s-.13-1.02-.37-1.44c-.25-.41-.59-.74-1.04-.96-.44-.23-.95-.33-1.52-.33s-1.08.11-1.53.33c-.45.23-.8.54-1.05.96-.25.41-.37.89-.37,1.44s.12,1.02.37,1.44.59.74,1.05.98c.45.23.96.35,1.53.35Z"/>
    <path class="st0" d="M190.48,26.54c-1.07,0-2.01-.21-2.81-.64s-1.42-1.02-1.86-1.76-.66-1.59-.66-2.54.21-1.81.64-2.56c.43-.74,1.02-1.32,1.77-1.74s1.61-.63,2.57-.63,1.77.2,2.51.62c.74.41,1.31.99,1.73,1.73s.63,1.62.63,2.63v.32c0,.12-.02.23-.03.35h-8.03v-1.5h6.84l-.89.47c.02-.56-.11-1.04-.35-1.46s-.57-.75-.99-.99-.89-.36-1.44-.36-1.04.12-1.45.36c-.41.24-.74.57-.98,1-.23.43-.35.93-.35,1.5v.36c0,.58.14,1.09.4,1.53.26.44.64.79,1.12,1.03.48.24,1.04.36,1.66.36.54,0,1.03-.08,1.46-.26.44-.17.82-.44,1.16-.8l1.21,1.39c-.44.5-.98.89-1.63,1.17-.65.27-1.41.41-2.25.41h0Z"/>
    <path class="st0" d="M202.38,26.42v-12.63h5.2c1.12,0,2.08.18,2.88.54.8.36,1.41.88,1.85,1.55.44.68.65,1.47.65,2.4s-.22,1.73-.65,2.4-1.05,1.19-1.85,1.55c-.8.36-1.76.54-2.88.54h-3.9l1.05-1.1v4.75h-2.35ZM204.73,21.92l-1.05-1.14h3.79c1.04,0,1.81-.22,2.34-.66s.78-1.05.78-1.85-.26-1.43-.78-1.86c-.53-.44-1.3-.65-2.34-.65h-3.79l1.05-1.16v7.31Z"/>
    <path class="st0" d="M217.9,26.54c-.72,0-1.35-.12-1.9-.37s-.96-.59-1.26-1.03c-.29-.44-.44-.93-.44-1.49s.13-1.03.39-1.46c.26-.44.68-.77,1.27-1.03s1.37-.38,2.35-.38h2.8v1.5h-2.63c-.77,0-1.29.13-1.55.37-.26.25-.4.55-.4.91,0,.41.17.74.49.98s.77.36,1.35.36,1.05-.13,1.49-.38.75-.62.95-1.12l.38,1.35c-.22.56-.6,1.01-1.17,1.32-.56.32-1.26.47-2.12.47h0ZM220.93,26.42v-1.95l-.13-.41v-3.41c0-.66-.2-1.17-.59-1.54s-1-.55-1.8-.55c-.54,0-1.08.08-1.59.26s-.96.41-1.32.71l-.89-1.64c.52-.4,1.14-.69,1.85-.89.71-.2,1.46-.3,2.23-.3,1.4,0,2.47.33,3.24,1,.77.67,1.14,1.7,1.14,3.1v5.65h-2.13ZM217.36,15.46l2.44-2.47h2.65l-3.14,2.47h-1.95Z"/>
    <path class="st0" d="M225.95,26.42v-9.64h2.15v2.65l-.26-.77c.29-.65.74-1.14,1.36-1.48.62-.34,1.39-.5,2.32-.5v2.15c-.1-.02-.19-.04-.27-.05-.08,0-.17,0-.26,0-.86,0-1.53.25-2.04.75-.5.5-.76,1.24-.76,2.23v4.68h-2.26,0Z"/>
    <path class="st0" d="M233.44,26.42v-9.64h2.15v2.65l-.26-.77c.29-.65.74-1.14,1.36-1.48s1.39-.5,2.32-.5v2.15c-.1-.02-.19-.04-.27-.05-.08,0-.17,0-.26,0-.86,0-1.53.25-2.04.75-.5.5-.76,1.24-.76,2.23v4.68h-2.26,0,0Z"/>
    <path class="st0" d="M243.16,26.54c-.72,0-1.35-.12-1.9-.37s-.96-.59-1.26-1.03c-.29-.44-.44-.93-.44-1.49s.13-1.03.39-1.46c.26-.44.68-.77,1.27-1.03s1.37-.38,2.35-.38h2.8v1.5h-2.63c-.77,0-1.29.13-1.55.37-.26.25-.4.55-.4.91,0,.41.17.74.49.98s.77.36,1.35.36,1.05-.13,1.49-.38.75-.62.95-1.12l.38,1.35c-.22.56-.6,1.01-1.17,1.32-.56.32-1.26.47-2.12.47ZM246.19,26.42v-1.95l-.13-.41v-3.41c0-.66-.2-1.17-.59-1.54s-1-.55-1.8-.55c-.54,0-1.08.08-1.59.26s-.96.41-1.32.71l-.89-1.64c.52-.4,1.14-.69,1.85-.89.71-.2,1.46-.3,2.23-.3,1.4,0,2.47.33,3.24,1,.77.67,1.14,1.7,1.14,3.1v5.65h-2.13,0Z"/>
    <path class="st0" d="M255.3,25.98c-.92,0-1.74-.2-2.48-.59-.74-.39-1.32-.93-1.75-1.63-.43-.7-.64-1.52-.64-2.45s.21-1.74.64-2.44,1.01-1.24,1.75-1.62c.74-.38,1.56-.58,2.48-.58.82,0,1.55.17,2.2.49.65.32,1.17.83,1.56,1.52.39.68.59,1.56.59,2.63s-.2,1.96-.59,2.65-.91,1.2-1.56,1.53c-.65.33-1.38.5-2.2.5h0ZM255.59,30.04c-.89,0-1.76-.12-2.61-.35s-1.54-.57-2.08-1.02l1.01-1.7c.42.35.96.63,1.59.84.65.21,1.29.32,1.96.32,1.06,0,1.84-.24,2.33-.73s.74-1.22.74-2.2v-1.71l.18-2.18-.08-2.18v-2.35h2.15v8.18c0,1.74-.44,3.03-1.34,3.85-.89.83-2.18,1.23-3.87,1.23h.02ZM255.64,24.07c.56,0,1.07-.12,1.52-.35.44-.23.79-.56,1.04-.98.25-.41.37-.89.37-1.44s-.13-1.02-.37-1.44c-.25-.41-.59-.74-1.04-.96-.44-.23-.95-.33-1.52-.33s-1.08.11-1.53.33c-.45.23-.8.54-1.05.96-.25.41-.37.89-.37,1.44s.12,1.02.37,1.44.59.74,1.05.98c.45.23.96.35,1.53.35Z"/>
    <path class="st0" d="M266.65,26.54c-.72,0-1.35-.12-1.9-.37s-.96-.59-1.26-1.03c-.29-.44-.44-.93-.44-1.49s.13-1.03.39-1.46c.26-.44.68-.77,1.27-1.03s1.37-.38,2.35-.38h2.8v1.5h-2.63c-.77,0-1.29.13-1.55.37-.26.25-.4.55-.4.91,0,.41.17.74.49.98s.77.36,1.35.36,1.05-.13,1.49-.38.75-.62.95-1.12l.38,1.35c-.22.56-.6,1.01-1.17,1.32-.56.32-1.26.47-2.12.47ZM269.69,26.42v-1.95l-.13-.41v-3.41c0-.66-.2-1.17-.59-1.54s-1-.55-1.8-.55c-.54,0-1.08.08-1.59.26s-.96.41-1.32.71l-.89-1.64c.52-.4,1.14-.69,1.85-.89.71-.2,1.46-.3,2.23-.3,1.4,0,2.47.33,3.24,1,.77.67,1.14,1.7,1.14,3.1v5.65h-2.13,0Z"/>
    <path class="st0" d="M274.22,22.33v-1.88h4.96v1.88h-4.96Z"/>
    <path class="st0" d="M279.72,26.42l5.69-12.63h2.31l5.7,12.63h-2.45l-4.89-11.39h.94l-4.87,11.39h-2.42,0ZM282.34,23.49l.63-1.84h6.82l.63,1.84h-8.08ZM285.05,12.75l2.44-2.47h2.65l-3.14,2.47h-1.95Z"/>
    <path class="st0" d="M294.81,26.42v-13.39h2.26v13.39h-2.26Z"/>
    <path class="st0" d="M302.93,26.54c-.72,0-1.35-.12-1.9-.37s-.96-.59-1.26-1.03c-.29-.44-.44-.93-.44-1.49s.13-1.03.39-1.46c.26-.44.68-.77,1.27-1.03s1.37-.38,2.35-.38h2.8v1.5h-2.63c-.77,0-1.29.13-1.55.37-.26.25-.4.55-.4.91,0,.41.17.74.49.98s.77.36,1.35.36,1.05-.13,1.49-.38.75-.62.95-1.12l.38,1.35c-.22.56-.6,1.01-1.17,1.32-.56.32-1.26.47-2.12.47ZM305.96,26.42v-1.95l-.13-.41v-3.41c0-.66-.2-1.17-.59-1.54s-1-.55-1.8-.55c-.54,0-1.08.08-1.59.26s-.96.41-1.32.71l-.89-1.64c.52-.4,1.14-.69,1.85-.89.71-.2,1.46-.3,2.23-.3,1.4,0,2.47.33,3.24,1,.77.67,1.14,1.7,1.14,3.1v5.65h-2.13,0Z"/>
    <path class="st0" d="M313.36,26.42l-4.14-9.64h2.35l3.56,8.5h-1.16l3.69-8.5h2.17l-4.14,9.64h-2.33s0,0,0,0Z"/>
    <path class="st0" d="M323.73,26.54c-.72,0-1.35-.12-1.9-.37s-.96-.59-1.26-1.03c-.29-.44-.44-.93-.44-1.49s.13-1.03.39-1.46c.26-.44.68-.77,1.27-1.03s1.37-.38,2.35-.38h2.8v1.5h-2.63c-.77,0-1.29.13-1.55.37-.26.25-.4.55-.4.91,0,.41.17.74.49.98s.77.36,1.35.36,1.05-.13,1.49-.38.75-.62.95-1.12l.38,1.35c-.22.56-.6,1.01-1.17,1.32-.56.32-1.26.47-2.12.47ZM326.76,26.42v-1.95l-.13-.41v-3.41c0-.66-.2-1.17-.59-1.54s-1-.55-1.8-.55c-.54,0-1.08.08-1.59.26s-.96.41-1.32.71l-.89-1.64c.52-.4,1.14-.69,1.85-.89.71-.2,1.46-.3,2.23-.3,1.4,0,2.47.33,3.24,1,.77.67,1.14,1.7,1.14,3.1v5.65h-2.13,0Z"/>
  </g>
  <line class="st1" x1="121.33" y1="4" x2="121.33" y2="36.78"/>
</svg>